<svg width="28" height="25" viewBox="0 0 28 25" fill="none" xmlns="http://www.w3.org/2000/svg">
<path d="M16.9291 5.22051C17.3575 4.78223 17.6841 4.27314 17.8903 3.72248C18.0964 3.17182 18.178 2.59044 18.1303 2.01172C16.8151 2.10596 15.5942 2.65504 14.7307 3.54067C14.3172 3.96514 14.0038 4.45893 13.8092 4.99283C13.6146 5.52672 13.5426 6.08985 13.5975 6.64888C14.2391 6.65363 14.8732 6.52726 15.451 6.27958C16.0287 6.03189 16.5344 5.66952 16.9291 5.22051ZM19.7847 12.7044C19.7923 11.9336 20.021 11.1772 20.4493 10.5067C20.8776 9.83614 21.4912 9.27351 22.2324 8.8719C21.7647 8.27364 21.1463 7.78034 20.4264 7.43114C19.7065 7.08193 18.9048 6.88643 18.0849 6.86012C16.3172 6.69918 14.6854 7.77548 13.7448 7.77548C12.8043 7.77548 11.4784 6.88024 10.0053 6.90035C9.04223 6.92852 8.10383 7.17776 7.28162 7.62378C6.4594 8.0698 5.78145 8.69736 5.31389 9.44526C3.31948 12.5233 4.80396 17.1001 6.79837 19.5847C7.70492 20.8018 8.83811 22.1799 10.3339 22.1296C11.8297 22.0793 12.317 21.3047 14.0508 21.3047C15.7846 21.3047 16.3172 22.1296 17.7903 22.0994C19.2635 22.0692 20.306 20.8521 21.2579 19.635C21.9322 18.7513 22.4589 17.7857 22.8217 16.7682C21.9236 16.4282 21.1574 15.8621 20.6177 15.1399C20.0779 14.4177 19.7884 13.571 19.7847 12.7044Z" fill="white"/>
</svg>
