<svg width="20" height="20" viewBox="0 0 20 20" fill="none" xmlns="http://www.w3.org/2000/svg">
<path d="M14.1102 5.81023H14.9402V6.64023C14.9402 6.86036 15.0276 7.07148 15.1833 7.22713C15.3389 7.38279 15.55 7.47023 15.7702 7.47023C15.9903 7.47023 16.2014 7.38279 16.3571 7.22713C16.5127 7.07148 16.6002 6.86036 16.6002 6.64023V5.81023H17.4302C17.6503 5.81023 17.8614 5.72279 18.0171 5.56713C18.1727 5.41148 18.2602 5.20036 18.2602 4.98023C18.2602 4.7601 18.1727 4.54899 18.0171 4.39334C17.8614 4.23768 17.6503 4.15023 17.4302 4.15023H16.6002V3.32023C16.6002 3.1001 16.5127 2.88899 16.3571 2.73334C16.2014 2.57768 15.9903 2.49023 15.7702 2.49023C15.55 2.49023 15.3389 2.57768 15.1833 2.73334C15.0276 2.88899 14.9402 3.1001 14.9402 3.32023V4.15023H14.1102C13.89 4.15023 13.6789 4.23768 13.5233 4.39334C13.3676 4.54899 13.2802 4.7601 13.2802 4.98023C13.2802 5.20036 13.3676 5.41148 13.5233 5.56713C13.6789 5.72279 13.89 5.81023 14.1102 5.81023ZM17.4302 9.13023C17.21 9.13023 16.9989 9.21768 16.8433 9.37334C16.6876 9.52899 16.6002 9.74011 16.6002 9.96023V14.9402C16.6002 15.1604 16.5127 15.3715 16.3571 15.5271C16.2014 15.6828 15.9903 15.7702 15.7702 15.7702H4.15016C3.93003 15.7702 3.71891 15.6828 3.56326 15.5271C3.4076 15.3715 3.32016 15.1604 3.32016 14.9402V6.98053L8.20056 11.8692C8.66743 12.3355 9.3003 12.5974 9.96016 12.5974C10.62 12.5974 11.2529 12.3355 11.7198 11.8692L13.7699 9.81913C13.9261 9.66284 14.014 9.45086 14.014 9.22983C14.014 9.0088 13.9261 8.79683 13.7699 8.64053C13.6136 8.48424 13.4016 8.39644 13.1806 8.39644C12.9595 8.39644 12.7475 8.48424 12.5913 8.64053L10.5412 10.6906C10.386 10.8427 10.1774 10.9279 9.96016 10.9279C9.7429 10.9279 9.53431 10.8427 9.37916 10.6906L4.49046 5.81023H10.7902C11.0103 5.81023 11.2214 5.72279 11.3771 5.56713C11.5327 5.41148 11.6202 5.20036 11.6202 4.98023C11.6202 4.7601 11.5327 4.54899 11.3771 4.39334C11.2214 4.23768 11.0103 4.15023 10.7902 4.15023H4.15016C3.48977 4.15023 2.85643 4.41257 2.38946 4.87954C1.92249 5.3465 1.66016 5.97985 1.66016 6.64023V14.9402C1.66016 15.6006 1.92249 16.234 2.38946 16.7009C2.85643 17.1679 3.48977 17.4302 4.15016 17.4302H15.7702C16.4305 17.4302 17.0639 17.1679 17.5309 16.7009C17.9978 16.234 18.2602 15.6006 18.2602 14.9402V9.96023C18.2602 9.74011 18.1727 9.52899 18.0171 9.37334C17.8614 9.21768 17.6503 9.13023 17.4302 9.13023Z" fill="#FF5033"/>
</svg>
