<svg width="50" height="50" viewBox="0 0 50 50" fill="none" xmlns="http://www.w3.org/2000/svg">
<path d="M25 4.6875C13.7998 4.6875 4.6875 13.7998 4.6875 25C4.6875 36.2002 13.7998 45.3125 25 45.3125C36.2002 45.3125 45.3125 36.2002 45.3125 25C45.3125 13.7998 36.2002 4.6875 25 4.6875ZM38.7344 33.6016H34.167L32.5176 30.7695L33.9824 24.8672L36.8936 23.6328L41.0586 27.2178C40.7467 29.4868 39.9544 31.6632 38.7344 33.6016ZM13.1064 23.6328L16.0156 24.8701L17.4805 30.7725L15.8311 33.6045H11.2656C10.046 31.667 9.25368 29.4916 8.94141 27.2236L13.1064 23.6328ZM37.4297 14.6025L35.6318 19.7129L32.5928 21L27.0508 16.3535V12.9355L31.334 10.082C33.6936 11.089 35.7822 12.6388 37.4297 14.6055V14.6025ZM18.666 10.0781L22.9492 12.9316V16.3496L17.4072 20.999L14.3682 19.7119L12.5703 14.6016C14.2178 12.6349 16.3064 11.0851 18.666 10.0781ZM21.248 40.7715L19.2852 35.8242L20.8477 33.1377H29.1484L30.7168 35.8262L28.7637 40.7676C26.2917 41.3561 23.7161 41.3561 21.2441 40.7676L21.248 40.7715Z" fill="#FF5033"/>
</svg>
