<svg width="50" height="50" viewBox="0 0 50 50" fill="none" xmlns="http://www.w3.org/2000/svg">
<path d="M38.2437 26.5174C38.3116 33.8611 44.6866 36.3053 44.7569 36.3365C44.703 36.5084 43.7386 39.8193 41.3987 43.2385C39.3761 46.1947 37.2765 49.14 33.9698 49.2018C30.7206 49.2611 29.6757 47.2744 25.9605 47.2744C22.2464 47.2744 21.0858 49.14 18.0097 49.2611C14.8175 49.3822 12.3866 46.0639 10.3472 43.1189C6.17999 37.0939 2.99522 26.0936 7.27139 18.6682C9.39561 14.9807 13.1925 12.6459 17.3132 12.5857C20.4476 12.526 23.4062 14.6943 25.3222 14.6943C27.237 14.6943 30.8323 12.0865 34.612 12.4693C36.1944 12.5354 40.6358 13.1084 43.4878 17.2834C43.2585 17.426 38.1886 20.3775 38.2437 26.5174ZM32.137 8.48379C33.8315 6.43262 34.9722 3.57637 34.6612 0.735352C32.2183 0.833398 29.2644 2.36309 27.5124 4.41348C25.9421 6.22871 24.5671 9.13496 24.9378 11.9197C27.6608 12.1307 30.4421 10.5361 32.137 8.48379Z" fill="#1B1117"/>
</svg>
