<svg width="44" height="42" viewBox="0 0 44 42" fill="none" xmlns="http://www.w3.org/2000/svg">
<path d="M24.2702 29.2295H18.9215C17.8352 29.2295 16.9415 30.0695 16.9552 31.1064V36.212C16.9552 37.2489 17.8352 38.0889 18.9215 38.0889H19.2625C19.4943 38.4834 19.832 38.8118 20.2409 39.0404C20.6498 39.269 21.1151 39.3895 21.589 39.3895C22.0628 39.3895 22.5281 39.269 22.937 39.0404C23.3459 38.8118 23.6837 38.4834 23.9155 38.0889H24.2702C25.3565 38.0889 26.2365 37.2489 26.2365 36.212V31.1064C26.2365 30.0695 25.3565 29.2295 24.2702 29.2295Z" fill="#9B9B9B"/>
<path d="M24.9715 30.3581C25.3015 30.3581 25.5628 30.1219 25.5903 29.82C25.6865 28.6912 26.1953 25.9481 28.9728 23.0081C30.298 22.012 31.3866 20.7586 32.1664 19.3309C32.9463 17.9032 33.3996 16.3337 33.4965 14.7263C33.524 14.4113 33.5378 14.2013 33.5378 14.07V13.9388C33.4553 7.665 28.134 2.625 21.5753 2.625C18.4276 2.62484 15.407 3.81027 13.1697 5.92376C10.9324 8.03725 9.65913 10.9081 9.62653 13.9125C9.62653 13.9125 9.61278 14.2275 9.66778 14.7525C9.88778 18.0862 11.5928 21.0394 14.1915 22.995C16.969 25.9481 17.519 28.6912 17.6153 29.82C17.6428 30.1219 17.904 30.3581 18.234 30.3581H24.9715Z" fill="#FCD53F"/>
<path d="M21.5895 14.0439C23.817 14.0439 25.632 15.7633 25.6595 17.8896V17.9946C25.6595 18.0339 25.6595 18.0864 25.6458 18.1652C25.577 19.2677 25.0133 20.3046 24.1058 20.9871L24.0095 21.0527L23.927 21.1314C22.4145 22.7327 22.0983 26.8014 22.0433 29.0327H21.1495C21.0808 26.8014 20.7508 22.7327 19.2383 21.1314L19.1558 21.0527L19.0595 20.9871C18.6054 20.6442 18.2331 20.2128 17.9675 19.7217C17.7019 19.2305 17.5492 18.6909 17.5195 18.1389C17.5195 18.0864 17.5058 18.0471 17.5058 18.0208V17.9027C17.547 15.7764 19.3758 14.0439 21.5895 14.0439ZM21.5895 12.7314C20.458 12.7318 19.3548 13.0687 18.4331 13.6951C17.5115 14.3216 16.8171 15.2066 16.4466 16.2271C16.0762 17.2476 16.0479 18.3529 16.3659 19.3895C16.6838 20.426 17.3322 21.3422 18.2208 22.0108C19.8708 23.7696 19.7883 30.3583 19.7883 30.3583H23.4183C23.4183 30.3583 23.3083 23.7696 24.972 22.0239C26.1545 21.1314 26.9383 19.7796 27.0345 18.2439C27.0483 18.0996 27.0483 18.0077 27.0483 17.9421V17.8896C27.0334 16.5169 26.4518 15.2052 25.4297 14.2394C24.4077 13.2736 23.0277 12.7317 21.5895 12.7314Z" fill="#FFB02E"/>
<path d="M26.3551 32.882C26.4441 32.8672 26.5292 32.8358 26.6055 32.7896C26.6818 32.7434 26.7478 32.6833 26.7998 32.6127C26.8518 32.5421 26.8887 32.4625 26.9084 32.3783C26.9281 32.2941 26.9303 32.2071 26.9147 32.1221C26.8992 32.0371 26.8663 31.9559 26.8179 31.8831C26.7695 31.8102 26.7065 31.7472 26.6326 31.6976C26.5586 31.648 26.4752 31.6128 26.387 31.594C26.2988 31.5751 26.2076 31.5731 26.1186 31.5879L16.8511 33.1366C16.7621 33.1515 16.677 33.1829 16.6007 33.2291C16.5244 33.2753 16.4584 33.3354 16.4064 33.406C16.3545 33.4765 16.3176 33.5562 16.2978 33.6404C16.2781 33.7245 16.276 33.8116 16.2915 33.8966C16.307 33.9816 16.3399 34.0628 16.3883 34.1356C16.4368 34.2084 16.4997 34.2715 16.5736 34.3211C16.6476 34.3707 16.731 34.4059 16.8192 34.4247C16.9074 34.4435 16.9986 34.4456 17.0876 34.4308L26.3551 32.882ZM26.2864 35.7039C26.4639 35.6719 26.6211 35.5744 26.724 35.4326C26.8268 35.2908 26.8671 35.1161 26.836 34.9462C26.8049 34.7763 26.705 34.6249 26.5579 34.5247C26.4108 34.4246 26.2283 34.3838 26.0499 34.4111L16.9061 35.9467C16.8142 35.9583 16.7256 35.9876 16.6458 36.0327C16.566 36.0778 16.4966 36.1379 16.4418 36.2093C16.3869 36.2807 16.3478 36.3619 16.3267 36.4481C16.3056 36.5343 16.303 36.6237 16.3191 36.7109C16.3351 36.7981 16.3695 36.8813 16.4202 36.9555C16.4708 37.0297 16.5366 37.0933 16.6137 37.1426C16.6907 37.1918 16.7775 37.2257 16.8686 37.2421C16.9597 37.2586 17.0534 37.2572 17.144 37.2382L26.2864 35.7039Z" fill="#D3D3D3"/>
<path d="M18.9618 7.13998C17.4356 9.65998 18.2056 12.81 20.6806 14.1618C23.1556 15.5137 26.3868 14.5819 27.9131 12.0618C29.4393 9.54185 28.6693 6.39185 26.1943 5.03997C23.7193 3.6881 20.4881 4.61998 18.9618 7.13998Z" fill="#FFF478"/>
</svg>
