<svg width="39" height="41" viewBox="0 0 39 41" fill="none" xmlns="http://www.w3.org/2000/svg">
<path d="M21.5132 28.5332H16.7722C15.8094 28.5332 15.0172 29.3532 15.0294 30.3654V35.3495C15.0294 36.3616 15.8094 37.1816 16.7722 37.1816H17.0745C17.28 37.5667 17.5793 37.8874 17.9418 38.1105C18.3042 38.3336 18.7166 38.4513 19.1366 38.4513C19.5566 38.4513 19.9691 38.3336 20.3315 38.1105C20.6939 37.8874 20.9933 37.5667 21.1987 37.1816H21.5132C22.476 37.1816 23.256 36.3616 23.256 35.3495V30.3654C23.256 29.3532 22.476 28.5332 21.5132 28.5332Z" fill="#9B9B9B"/>
<path d="M22.1339 29.6353C22.4264 29.6353 22.6579 29.4047 22.6823 29.11C22.7676 28.0081 23.2185 25.3303 25.6804 22.4603C26.8551 21.4879 27.8199 20.2644 28.5111 18.8707C29.2024 17.4769 29.6042 15.9448 29.6901 14.3756C29.7145 14.0681 29.7267 13.8631 29.7267 13.735V13.6069C29.6535 7.4825 24.937 2.5625 19.1235 2.5625C16.3336 2.56234 13.6562 3.71955 11.6731 5.78272C9.69007 7.84588 8.5615 10.6483 8.5326 13.5813C8.5326 13.5813 8.52042 13.8888 8.56917 14.4012C8.76417 17.6556 10.2754 20.5384 12.5789 22.4475C15.0407 25.3303 15.5282 28.0081 15.6135 29.11C15.6379 29.4047 15.8695 29.6353 16.162 29.6353H22.1339Z" fill="#FCD53F"/>
<path d="M19.1351 13.7095C21.1094 13.7095 22.7182 15.3879 22.7426 17.4635V17.566C22.7426 17.6045 22.7426 17.6557 22.7304 17.7326C22.6694 18.8088 22.1697 19.821 21.3654 20.4873L21.2801 20.5513L21.2069 20.6282C19.8663 22.1913 19.586 26.1632 19.5372 28.3413H18.7451C18.6841 26.1632 18.3916 22.1913 17.051 20.6282L16.9779 20.5513L16.8926 20.4873C16.49 20.1526 16.16 19.7315 15.9246 19.252C15.6892 18.7726 15.5539 18.2458 15.5276 17.707C15.5276 17.6557 15.5154 17.6173 15.5154 17.5917V17.4763C15.5519 15.4007 17.1729 13.7095 19.1351 13.7095ZM19.1351 12.4282C18.1322 12.4286 17.1543 12.7574 16.3373 13.369C15.5204 13.9805 14.905 14.8445 14.5766 15.8407C14.2482 16.8369 14.2232 17.9159 14.505 18.9277C14.7868 19.9396 15.3615 20.834 16.1491 21.4867C17.6116 23.2035 17.5385 29.6354 17.5385 29.6354H20.756C20.756 29.6354 20.6585 23.2035 22.1332 21.4995C23.1813 20.6282 23.876 19.3085 23.9613 17.8095C23.9735 17.6685 23.9735 17.5788 23.9735 17.5148V17.4635C23.9603 16.1235 23.4448 14.843 22.5389 13.9002C21.633 12.9575 20.4098 12.4285 19.1351 12.4282Z" fill="#FFB02E"/>
<path d="M23.3607 32.099C23.4396 32.0846 23.5151 32.0539 23.5827 32.0088C23.6503 31.9637 23.7088 31.905 23.7549 31.8361C23.801 31.7672 23.8337 31.6895 23.8512 31.6073C23.8686 31.5251 23.8705 31.4401 23.8568 31.3572C23.843 31.2742 23.8138 31.1949 23.7709 31.1238C23.728 31.0527 23.6722 30.9912 23.6067 30.9428C23.5412 30.8944 23.4672 30.86 23.389 30.8416C23.3109 30.8233 23.23 30.8212 23.1511 30.8357L14.9367 32.3476C14.8578 32.3621 14.7824 32.3927 14.7148 32.4378C14.6472 32.4829 14.5886 32.5416 14.5426 32.6105C14.4965 32.6794 14.4638 32.7571 14.4463 32.8393C14.4289 32.9215 14.4269 33.0065 14.4407 33.0894C14.4545 33.1724 14.4836 33.2517 14.5266 33.3228C14.5695 33.3939 14.6253 33.4554 14.6908 33.5038C14.7563 33.5522 14.8303 33.5866 14.9085 33.605C14.9866 33.6234 15.0675 33.6254 15.1464 33.6109L23.3607 32.099ZM23.2998 34.8537C23.4572 34.8225 23.5965 34.7273 23.6877 34.5889C23.7789 34.4505 23.8145 34.2799 23.787 34.114C23.7594 33.9482 23.6709 33.8004 23.5405 33.7026C23.4101 33.6049 23.2483 33.565 23.0902 33.5917L14.9855 35.0907C14.904 35.1021 14.8255 35.1306 14.7548 35.1747C14.6841 35.2187 14.6225 35.2773 14.5739 35.347C14.5253 35.4167 14.4906 35.4961 14.4719 35.5802C14.4532 35.6644 14.4509 35.7517 14.4652 35.8368C14.4794 35.9219 14.5099 36.0031 14.5548 36.0755C14.5996 36.1479 14.658 36.2101 14.7263 36.2581C14.7946 36.3062 14.8715 36.3393 14.9522 36.3553C15.033 36.3714 15.1161 36.3701 15.1963 36.3515L23.2998 34.8537Z" fill="#D3D3D3"/>
<path d="M16.8083 6.97024C15.4554 9.43024 16.1379 12.5052 18.3317 13.8249C20.5254 15.1446 23.3895 14.2349 24.7423 11.7749C26.0951 9.31493 25.4126 6.23993 23.2189 4.92024C21.0251 3.60056 18.1611 4.51024 16.8083 6.97024Z" fill="#FFF478"/>
</svg>
