<svg width="39" height="38" viewBox="0 0 39 38" fill="none" xmlns="http://www.w3.org/2000/svg">
<path d="M21.5132 26.4458H16.7722C15.8094 26.4458 15.0172 27.2058 15.0294 28.1439V32.7633C15.0294 33.7014 15.8094 34.4614 16.7722 34.4614H17.0745C17.28 34.8184 17.5793 35.1155 17.9418 35.3223C18.3042 35.5291 18.7166 35.6382 19.1366 35.6382C19.5566 35.6382 19.9691 35.5291 20.3315 35.3223C20.6939 35.1155 20.9933 34.8184 21.1987 34.4614H21.5132C22.476 34.4614 23.256 33.7014 23.256 32.7633V28.1439C23.256 27.2058 22.476 26.4458 21.5132 26.4458Z" fill="#9B9B9B"/>
<path d="M22.1339 27.4669C22.4264 27.4669 22.6579 27.2531 22.6823 26.98C22.7676 25.9587 23.2185 23.4769 25.6804 20.8169C26.8551 19.9156 27.8199 18.7816 28.5111 17.4899C29.2024 16.1981 29.6042 14.7781 29.6901 13.3238C29.7145 13.0388 29.7267 12.8488 29.7267 12.73V12.6112C29.6535 6.935 24.937 2.375 19.1235 2.375C16.3336 2.37485 13.6562 3.44739 11.6731 5.35959C9.69007 7.2718 8.5615 9.86919 8.5326 12.5875C8.5326 12.5875 8.52042 12.8725 8.56917 13.3475C8.76417 16.3637 10.2754 19.0356 12.5789 20.805C15.0407 23.4769 15.5282 25.9587 15.6135 26.98C15.6379 27.2531 15.8695 27.4669 16.162 27.4669H22.1339Z" fill="#FCD53F"/>
<path d="M19.1351 12.7061C21.1094 12.7061 22.7182 14.2617 22.7426 16.1854V16.2804C22.7426 16.3161 22.7426 16.3636 22.7304 16.4348C22.6694 17.4323 22.1697 18.3704 21.3654 18.9879L21.2801 19.0473L21.2069 19.1186C19.8663 20.5673 19.586 24.2486 19.5372 26.2673H18.7451C18.6841 24.2486 18.3916 20.5673 17.051 19.1186L16.9779 19.0473L16.8926 18.9879C16.49 18.6777 16.16 18.2874 15.9246 17.843C15.6892 17.3987 15.5539 16.9105 15.5276 16.4111C15.5276 16.3636 15.5154 16.3279 15.5154 16.3042V16.1973C15.5519 14.2736 17.1729 12.7061 19.1351 12.7061ZM19.1351 11.5186C18.1322 11.5189 17.1543 11.8237 16.3373 12.3905C15.5204 12.9573 14.905 13.758 14.5766 14.6813C14.2482 15.6046 14.2232 16.6047 14.505 17.5425C14.7868 18.4803 15.3615 19.3093 16.1491 19.9142C17.6116 21.5054 17.5385 27.4667 17.5385 27.4667H20.756C20.756 27.4667 20.6585 21.5054 22.1332 19.9261C23.1813 19.1186 23.876 17.8954 23.9613 16.5061C23.9735 16.3754 23.9735 16.2923 23.9735 16.2329V16.1854C23.9603 14.9434 23.4448 13.7567 22.5389 12.8829C21.633 12.0091 20.4098 11.5188 19.1351 11.5186Z" fill="#FFB02E"/>
<path d="M23.3607 29.7505C23.4396 29.7371 23.5151 29.7087 23.5827 29.6669C23.6503 29.6251 23.7088 29.5707 23.7549 29.5068C23.801 29.443 23.8337 29.3709 23.8512 29.2948C23.8686 29.2186 23.8705 29.1398 23.8568 29.063C23.843 28.9861 23.8138 28.9126 23.7709 28.8467C23.728 28.7808 23.6722 28.7238 23.6067 28.6789C23.5412 28.634 23.4672 28.6022 23.389 28.5851C23.3109 28.5681 23.23 28.5662 23.1511 28.5796L14.9367 29.9809C14.8578 29.9943 14.7824 30.0227 14.7148 30.0645C14.6472 30.1063 14.5886 30.1607 14.5426 30.2246C14.4965 30.2884 14.4638 30.3605 14.4463 30.4366C14.4289 30.5128 14.4269 30.5916 14.4407 30.6685C14.4545 30.7453 14.4836 30.8188 14.5266 30.8847C14.5695 30.9506 14.6253 31.0076 14.6908 31.0525C14.7563 31.0974 14.8303 31.1293 14.9085 31.1463C14.9866 31.1633 15.0675 31.1652 15.1464 31.1518L23.3607 29.7505ZM23.2998 32.3036C23.4572 32.2747 23.5965 32.1865 23.6877 32.0582C23.7789 31.9299 23.8145 31.7718 23.787 31.6181C23.7594 31.4644 23.6709 31.3274 23.5405 31.2368C23.4101 31.1462 23.2483 31.1092 23.0902 31.134L14.9855 32.5233C14.904 32.5338 14.8255 32.5603 14.7548 32.6011C14.6841 32.6419 14.6225 32.6963 14.5739 32.7609C14.5253 32.8255 14.4906 32.899 14.4719 32.977C14.4532 33.055 14.4509 33.1359 14.4652 33.2148C14.4794 33.2937 14.5099 33.3689 14.5548 33.436C14.5996 33.5032 14.658 33.5607 14.7263 33.6053C14.7946 33.6499 14.8715 33.6805 14.9522 33.6954C15.033 33.7103 15.1161 33.709 15.1963 33.6918L23.2998 32.3036Z" fill="#D3D3D3"/>
<path d="M16.8083 6.46007C15.4554 8.74007 16.1379 11.5901 18.3317 12.8132C20.5254 14.0363 23.3895 13.1932 24.7423 10.9132C26.0951 8.63319 25.4126 5.7832 23.2189 4.56007C21.0251 3.33695 18.1611 4.18007 16.8083 6.46007Z" fill="#FFF478"/>
</svg>
