<svg width="38" height="37" viewBox="0 0 38 37" fill="none" xmlns="http://www.w3.org/2000/svg">
<path d="M20.9602 25.7495H16.3408C15.4027 25.7495 14.6308 26.4895 14.6427 27.4029V31.9008C14.6427 32.8142 15.4027 33.5542 16.3408 33.5542H16.6353C16.8355 33.9017 17.1272 34.1911 17.4804 34.3924C17.8335 34.5938 18.2353 34.7 18.6446 34.7C19.0538 34.7 19.4557 34.5938 19.8088 34.3924C20.162 34.1911 20.4536 33.9017 20.6538 33.5542H20.9602C21.8983 33.5542 22.6583 32.8142 22.6583 31.9008V27.4029C22.6583 26.4895 21.8983 25.7495 20.9602 25.7495Z" fill="#9B9B9B"/>
<path d="M21.5663 26.7441C21.8513 26.7441 22.0769 26.5359 22.1007 26.27C22.1838 25.2756 22.6232 22.8591 25.0219 20.2691C26.1665 19.3915 27.1066 18.2874 27.7801 17.0296C28.4536 15.7719 28.8451 14.3892 28.9288 12.9731C28.9526 12.6956 28.9644 12.5106 28.9644 12.395V12.2794C28.8932 6.7525 24.2976 2.3125 18.6332 2.3125C15.9147 2.31236 13.306 3.35667 11.3738 5.21855C9.44161 7.08043 8.34197 9.60948 8.31382 12.2563C8.31382 12.2563 8.30194 12.5337 8.34944 12.9963C8.53944 15.9331 10.0119 18.5347 12.2563 20.2575C14.6551 22.8591 15.1301 25.2756 15.2132 26.27C15.2369 26.5359 15.4626 26.7441 15.7476 26.7441H21.5663Z" fill="#FCD53F"/>
<path d="M18.6442 12.3721C20.5679 12.3721 22.1354 13.8868 22.1592 15.7599V15.8524C22.1592 15.8871 22.1592 15.9333 22.1473 16.0027C22.0879 16.9739 21.601 17.8874 20.8173 18.4886L20.7342 18.5464L20.6629 18.6158C19.3567 20.0264 19.0835 23.6108 19.036 25.5764H18.2642C18.2048 23.6108 17.9198 20.0264 16.6135 18.6158L16.5423 18.5464L16.4592 18.4886C16.0669 18.1866 15.7454 17.8065 15.516 17.3739C15.2867 16.9412 15.1548 16.4658 15.1292 15.9796C15.1292 15.9333 15.1173 15.8986 15.1173 15.8755V15.7714C15.1529 13.8983 16.7323 12.3721 18.6442 12.3721ZM18.6442 11.2158C17.667 11.2162 16.7142 11.5129 15.9182 12.0648C15.1222 12.6167 14.5225 13.3963 14.2026 14.2953C13.8826 15.1944 13.8582 16.1681 14.1328 17.0812C14.4074 17.9943 14.9674 18.8015 15.7348 19.3905C17.1598 20.9399 17.0885 26.7443 17.0885 26.7443H20.2235C20.2235 26.7443 20.1285 20.9399 21.5654 19.4021C22.5867 18.6158 23.2635 17.4249 23.3467 16.0721C23.3585 15.9449 23.3585 15.8639 23.3585 15.8061V15.7599C23.3457 14.5506 22.8434 13.395 21.9607 12.5442C21.078 11.6934 19.8862 11.2161 18.6442 11.2158Z" fill="#FFB02E"/>
<path d="M22.7607 28.9675C22.8376 28.9545 22.9111 28.9268 22.977 28.8861C23.0429 28.8454 23.0999 28.7924 23.1448 28.7302C23.1896 28.6681 23.2215 28.5979 23.2385 28.5238C23.2556 28.4496 23.2574 28.3729 23.244 28.2981C23.2306 28.2232 23.2022 28.1516 23.1604 28.0875C23.1186 28.0233 23.0642 27.9678 23.0003 27.9241C22.9365 27.8804 22.8644 27.8494 22.7883 27.8328C22.7121 27.8162 22.6333 27.8144 22.5565 27.8275L14.5527 29.1918C14.4758 29.2049 14.4023 29.2326 14.3364 29.2733C14.2705 29.314 14.2135 29.3669 14.1686 29.4291C14.1238 29.4913 14.0919 29.5614 14.0749 29.6356C14.0578 29.7097 14.056 29.7864 14.0694 29.8613C14.0828 29.9362 14.1112 30.0077 14.153 30.0719C14.1948 30.136 14.2492 30.1915 14.3131 30.2352C14.3769 30.2789 14.449 30.31 14.5251 30.3266C14.6013 30.3431 14.6801 30.345 14.757 30.3319L22.7607 28.9675ZM22.7013 31.4535C22.8547 31.4253 22.9904 31.3394 23.0793 31.2145C23.1681 31.0896 23.2029 30.9356 23.176 30.7859C23.1492 30.6363 23.0629 30.5029 22.9358 30.4147C22.8088 30.3264 22.6512 30.2905 22.4971 30.3146L14.6002 31.6674C14.5208 31.6776 14.4443 31.7033 14.3754 31.7431C14.3065 31.7828 14.2465 31.8358 14.1992 31.8987C14.1518 31.9616 14.118 32.0331 14.0998 32.1091C14.0816 32.185 14.0794 32.2638 14.0932 32.3406C14.1071 32.4174 14.1368 32.4907 14.1805 32.5561C14.2242 32.6214 14.2811 32.6775 14.3476 32.7209C14.4142 32.7643 14.4891 32.7941 14.5678 32.8086C14.6465 32.8231 14.7274 32.8219 14.8056 32.8051L22.7013 31.4535Z" fill="#D3D3D3"/>
<path d="M16.3764 6.28985C15.0582 8.50985 15.7232 11.2849 17.8607 12.4758C19.9982 13.6667 22.7889 12.8458 24.107 10.6258C25.4251 8.40579 24.7601 5.63079 22.6226 4.43985C20.4851 3.24891 17.6945 4.06985 16.3764 6.28985Z" fill="#FFF478"/>
</svg>
