<svg width="25" height="26" viewBox="0 0 25 26" fill="none" xmlns="http://www.w3.org/2000/svg">
<path d="M15.6992 5.10938H9.76537C8.60593 5.1108 7.49437 5.59158 6.67458 6.44625C5.8548 7.30092 5.39375 8.45967 5.39258 9.66825L5.39258 15.8535C5.39394 17.0621 5.85518 18.2208 6.6751 19.0753C7.49503 19.9298 8.60666 20.4104 9.76611 20.4116H15.6999C16.8594 20.4102 17.9709 19.9294 18.7907 19.0748C19.6105 18.2201 20.0716 17.0614 20.0727 15.8528V9.66748C20.0714 8.4589 19.6101 7.30024 18.7902 6.44571C17.9703 5.59119 16.8586 5.11059 15.6992 5.10938V5.10938ZM18.5963 15.8528C18.5963 16.2493 18.5213 16.642 18.3757 17.0084C18.2301 17.3748 18.0167 17.7077 17.7477 17.9881C17.4787 18.2685 17.1593 18.491 16.8079 18.6427C16.4564 18.7945 16.0796 18.8726 15.6992 18.8726H9.76537C8.99715 18.8724 8.26046 18.5541 7.71732 17.9878C7.17417 17.4215 6.86905 16.6535 6.86905 15.8528V9.66748C6.86924 8.8667 7.17455 8.0988 7.71784 7.53263C8.26112 6.96647 8.99789 6.64842 9.76611 6.64842H15.6999C16.4682 6.64862 17.2048 6.96687 17.748 7.53317C18.2911 8.09948 18.5963 8.86747 18.5963 9.66825V15.8535V15.8528Z" fill="#FF5033"/>
<path d="M12.7331 8.80273C11.7268 8.80436 10.7622 9.22182 10.0507 9.96361C9.33917 10.7054 8.93886 11.711 8.9375 12.7599C8.93867 13.8092 9.33899 14.8151 10.0507 15.557C10.7623 16.299 11.7273 16.7165 12.7338 16.7179C13.7405 16.7167 14.7056 16.2993 15.4175 15.5573C16.1293 14.8153 16.5297 13.8093 16.5309 12.7599C16.5293 11.7107 16.1286 10.705 15.4167 9.9633C14.7047 9.2216 13.7396 8.80451 12.7331 8.8035V8.80273ZM12.7331 15.1789C12.1178 15.1789 11.5278 14.9241 11.0927 14.4706C10.6576 14.0171 10.4132 13.402 10.4132 12.7607C10.4132 12.1194 10.6576 11.5043 11.0927 11.0508C11.5278 10.5973 12.1178 10.3425 12.7331 10.3425C13.3484 10.3425 13.9384 10.5973 14.3735 11.0508C14.8085 11.5043 15.0529 12.1194 15.0529 12.7607C15.0529 13.402 14.8085 14.0171 14.3735 14.4706C13.9384 14.9241 13.3484 15.1789 12.7331 15.1789Z" fill="#FF5033"/>
<path d="M16.5365 9.78097C17.0388 9.78097 17.4461 9.35649 17.4461 8.83287C17.4461 8.30925 17.0388 7.88477 16.5365 7.88477C16.0342 7.88477 15.627 8.30925 15.627 8.83287C15.627 9.35649 16.0342 9.78097 16.5365 9.78097Z" fill="#FF5033"/>
</svg>
