<svg width="50" height="50" viewBox="0 0 50 50" fill="none" xmlns="http://www.w3.org/2000/svg">
<path d="M15.1611 8.54498C15.3464 8.56236 15.3464 8.56236 15.5354 8.58008C16.9282 8.71597 16.9282 8.71597 17.1722 8.99512C17.2256 9.08022 17.279 9.16532 17.334 9.25299C17.969 10.2144 18.7944 10.9265 19.9333 11.1787C20.9728 11.3414 21.8976 11.0381 22.7539 10.4493C22.8591 10.3407 22.9614 10.229 23.0591 10.1136C23.3398 9.86334 23.3398 9.86334 23.7183 9.84503C23.8861 9.87922 24.0528 9.91876 24.2188 9.961C24.4051 9.99877 24.4051 9.99877 24.5953 10.0373C25.3636 10.2151 25.8247 10.3933 26.2695 11.0657C26.3718 11.2484 26.4712 11.4328 26.5625 11.6212C25.9773 12.0113 25.2664 12.186 24.6023 12.4058C24.418 12.4679 24.2344 12.5321 24.0516 12.5985C22.7697 13.0631 21.915 13.1554 20.6331 12.6488C20.0477 12.4187 19.5131 12.448 18.9381 12.6847C18.5027 12.9355 18.2445 13.3158 18.0237 13.7574C17.9245 14.3086 17.9738 14.8146 18.2373 15.3138C18.6464 15.8934 19.1248 16.1139 19.7693 16.3514C19.8461 16.3805 19.923 16.4096 20.0021 16.4395C20.6882 16.6979 21.3781 16.9461 22.0703 17.1876C22.011 17.7992 21.9177 18.3887 21.7834 18.9881C21.7586 19.1055 21.7586 19.1055 21.7333 19.2252C21.6058 19.8005 21.6058 19.8005 21.3867 20.0196C21.1487 20.0006 20.9277 19.9697 20.6938 19.9268C20.6224 19.9146 20.5511 19.9024 20.4777 19.8898C20.2412 19.8491 20.0051 19.8068 19.7689 19.7644C19.6052 19.7358 19.4415 19.7073 19.2778 19.6789C18.9345 19.619 18.5912 19.5584 18.2481 19.4973C17.8073 19.4188 17.3664 19.3415 16.9253 19.2648C16.5872 19.2059 16.2492 19.1466 15.9112 19.0871C15.7486 19.0585 15.5859 19.0299 15.4233 19.0015C15.1964 18.9617 14.9696 18.9213 14.7428 18.8808C14.6411 18.863 14.6411 18.863 14.5373 18.8449C14.0737 18.7613 14.0737 18.7613 13.9648 18.6524C13.9471 18.4849 13.9357 18.3168 13.9269 18.1486C13.921 18.041 13.9151 17.9334 13.9091 17.8226C13.9032 17.7053 13.8973 17.588 13.8912 17.4672C13.8849 17.3473 13.8785 17.2275 13.8719 17.104C13.8551 16.7843 13.8386 16.4645 13.8223 16.1447C13.8057 15.8213 13.7884 15.4978 13.7712 15.1744C13.7583 14.9275 13.7454 14.6806 13.7325 14.4337C13.7264 14.3174 13.7203 14.2011 13.714 14.0813C13.7085 13.9722 13.7029 13.8631 13.6972 13.7506C13.6923 13.6551 13.6874 13.5595 13.6823 13.4611C13.6715 13.173 13.6701 12.8859 13.6719 12.5977C13.5929 12.6118 13.514 12.6259 13.4327 12.6404C13.3283 12.6586 13.224 12.6767 13.1165 12.6954C13.0134 12.7135 12.9103 12.7316 12.804 12.7503C12.5 12.793 12.5 12.793 12.0117 12.793C12.0117 11.6006 12.0117 10.4083 12.0117 9.17975C13.9225 8.39294 13.9225 8.39294 15.1611 8.54498Z" fill="#FF5033"/>
<path d="M45.9402 15.2841C46.7994 15.904 47.4455 16.722 47.6568 17.7736C47.7916 19.025 47.6721 20.0923 46.906 21.1244C46.2627 21.8777 45.4173 22.397 44.4341 22.5587C43.2053 22.6425 42.2057 22.4271 41.2115 21.6798C40.3777 20.9036 39.9122 20.0373 39.826 18.8989C39.7971 17.7349 40.1248 16.7084 40.9246 15.8448C42.2684 14.5731 44.358 14.2991 45.9402 15.2841Z" fill="#FF5033"/>
<path d="M14.0616 20.2148C15.4898 20.3641 16.8989 20.6244 18.3118 20.8763C18.6372 20.9342 18.9627 20.9916 19.2881 21.0491C19.9223 21.1612 20.5565 21.2738 21.1905 21.3867C21.2033 21.4488 21.2161 21.511 21.2292 21.575C21.2686 21.7888 21.2686 21.7888 21.4501 21.8903C21.5527 21.9345 21.5527 21.9345 21.6574 21.9795C21.7316 22.0126 21.8057 22.0457 21.8821 22.0798C21.96 22.113 22.038 22.1461 22.1183 22.1802C22.2721 22.247 22.4257 22.3144 22.5791 22.3824C22.6475 22.4116 22.7159 22.4408 22.7864 22.4709C22.9483 22.5586 22.9483 22.5586 23.046 22.7539C22.9623 22.8675 22.8787 22.981 22.795 23.0946C22.7403 23.1688 22.6856 23.243 22.6293 23.3195C22.507 23.4855 22.3846 23.6515 22.2622 23.8174C21.9445 24.2483 21.6273 24.6795 21.3111 25.1114C20.7325 25.9008 20.1546 26.6872 19.5304 27.4414C17.5283 27.1458 15.0643 26.7058 13.671 25.0977C13.1287 24.2796 13.1062 23.4103 13.2804 22.4609C13.481 21.6934 13.7656 20.9498 14.0616 20.2148Z" fill="#FF5033"/>
<path d="M21.8208 2.5391C22.6469 3.02201 23.1363 3.76509 23.3924 4.67659C23.6825 5.98177 23.3963 7.35613 22.7303 8.49002C22.4148 8.95547 22.0659 9.28448 21.5828 9.57035C21.5233 9.60673 21.4637 9.64311 21.4024 9.68059C20.8871 9.88914 20.2208 9.8429 19.6899 9.70539C18.9123 9.36079 18.422 8.63695 18.0737 7.8873C17.59 6.63306 17.5088 5.37247 17.9695 4.1016C18.321 3.39747 18.8731 2.72992 19.6129 2.42542C20.3395 2.23392 21.1297 2.22477 21.8208 2.5391Z" fill="#FF5033"/>
<path d="M14.0618 35.5469C14.3409 35.6736 14.5413 35.807 14.7567 36.0243C14.8134 36.081 14.8701 36.1377 14.9285 36.1961C14.9884 36.257 15.0483 36.318 15.1101 36.3808C15.1724 36.4434 15.2347 36.5059 15.2989 36.5704C15.4973 36.77 15.6951 36.9702 15.8928 37.1704C16.0275 37.306 16.1621 37.4416 16.2968 37.5771C16.6265 37.9089 16.9557 38.2414 17.2844 38.5742C17.1071 38.9645 16.899 39.1354 16.552 39.3921C16.4364 39.4787 16.3208 39.5655 16.2053 39.6523C16.143 39.6987 16.0807 39.7452 16.0166 39.7931C15.6648 40.058 15.3183 40.3297 14.9712 40.6006C14.8216 40.7171 14.6719 40.8335 14.5222 40.95C14.2101 41.193 13.8981 41.4362 13.5861 41.6794C13.5083 41.74 13.4305 41.8005 13.3504 41.863C13.203 41.9778 13.0556 42.0927 12.9083 42.2076C12.4504 42.5643 11.9883 42.915 11.5227 43.2617C11.0393 43.0287 10.7341 42.7439 10.4485 42.2852C10.2938 41.8345 10.2181 41.3893 10.1555 40.918C10.1375 40.8282 10.1195 40.7385 10.101 40.646C9.99276 39.7601 10.5762 39.1344 11.0857 38.4698C11.2179 38.2968 11.346 38.1218 11.4727 37.9448C12.2192 36.916 13.0128 36.2425 14.0618 35.5469Z" fill="#FF5033"/>
<path d="M29.1015 26.1719C29.4299 26.3187 29.6806 26.509 29.956 26.7395C30.0505 26.8179 30.1451 26.8964 30.2425 26.9772C30.2942 27.0202 30.3459 27.0632 30.3992 27.1076C30.7077 27.3632 31.0185 27.6159 31.3293 27.8687C31.3951 27.9222 31.4608 27.9757 31.5286 28.0308C32.0386 28.4448 32.5534 28.8523 33.0722 29.2552C33.7186 29.7589 33.7186 29.7589 33.789 30.1758C33.8055 30.4155 33.815 30.6558 33.8195 30.896C33.825 31.0844 33.825 31.0844 33.8306 31.2767C33.7721 31.7885 33.5607 32.0674 33.1989 32.4223C33.1298 32.4725 33.0607 32.5227 32.9895 32.5745C32.9216 32.627 32.8538 32.6795 32.7838 32.7335C32.359 32.8605 32.0392 32.6828 31.6406 32.5195C31.5631 32.4892 31.4857 32.459 31.4059 32.4278C29.8627 31.8133 28.3652 31.1083 27.0446 30.0903C26.987 30.0462 26.9293 30.002 26.8699 29.9565C26.663 29.7894 26.4912 29.6489 26.3813 29.403C26.3671 29.1992 26.3671 29.1992 26.4886 29.0149C26.5811 28.9211 26.5811 28.9211 26.6754 28.8254C26.7431 28.7553 26.8108 28.6851 26.8806 28.6129C26.9529 28.5405 27.0251 28.4681 27.0996 28.3936C27.2391 28.2508 27.3784 28.1078 27.5177 27.9648C27.5865 27.8944 27.6554 27.824 27.7263 27.7515C28.2093 27.2468 28.6571 26.7106 29.1015 26.1719Z" fill="#FF5033"/>
<path d="M5.3334 9.83485C5.55215 9.86838 5.77092 9.90176 5.98972 9.93498C6.33068 9.98727 6.67138 10.0405 7.01175 10.0965C8.74392 10.4253 8.74392 10.4253 10.3516 9.86346C10.4161 9.86346 10.4805 9.86346 10.5469 9.86346C10.5469 10.9269 10.5469 11.9904 10.5469 13.0861C8.96723 13.4246 8.96723 13.4246 8.10554 13.2814C8.01439 13.2678 7.92325 13.2542 7.82934 13.2401C7.53659 13.1946 7.24491 13.1447 6.95312 13.0934C6.79492 13.0657 6.79492 13.0657 6.63352 13.0375C6.41247 12.9986 6.19148 12.9594 5.97053 12.92C5.63305 12.8602 5.29528 12.8023 4.95746 12.7445C4.74172 12.7063 4.526 12.668 4.3103 12.6295C4.20989 12.6126 4.10948 12.5957 4.00602 12.5783C3.3539 12.4589 2.92486 12.3103 2.45636 11.825C2.23625 11.4265 2.28706 10.9871 2.34382 10.5471C2.51701 10.174 2.66213 10.0116 2.9969 9.77801C3.75293 9.52124 4.56476 9.70906 5.3334 9.83485Z" fill="#FF5033"/>
<path d="M15.2344 31.3477C16.3675 31.4013 17.4725 31.566 18.5913 31.7444C18.7686 31.7722 18.9458 31.8 19.1231 31.8277C19.5522 31.895 19.9812 31.9629 20.4102 32.0312C20.3567 32.9475 20.2431 33.8461 20.1019 34.752C20.0679 34.9697 20.0347 35.1876 20.0016 35.4055C19.7769 36.8705 19.7769 36.8705 19.4607 37.1445C19.3527 37.2233 19.244 37.3011 19.1345 37.3779C19.0791 37.4181 19.0236 37.4582 18.9665 37.4996C18.8299 37.5983 18.6924 37.6958 18.5547 37.793C17.8781 37.2397 17.2713 36.6181 16.6565 35.9985C16.5467 35.8883 16.4369 35.778 16.3271 35.6678C16.0602 35.3999 15.7937 35.1317 15.5273 34.8633C15.5596 34.7988 15.5918 34.7344 15.625 34.668C15.6895 34.668 15.7539 34.668 15.8203 34.668C15.7814 34.4803 15.7814 34.4803 15.7417 34.2888C15.5413 33.3108 15.3625 32.338 15.2344 31.3477Z" fill="#FF5033"/>
<path d="M27.5385 12.9883C27.7815 13.2213 27.953 13.5128 28.1367 13.7939C28.1893 13.8741 28.242 13.9542 28.2962 14.0367C28.7652 14.7808 29.0177 15.4605 28.8447 16.3452C28.6598 16.8328 28.4849 17.1661 28.0573 17.4744C27.1786 17.7562 26.2655 17.2983 25.4431 16.9968C25.3071 16.9476 25.171 16.8986 25.0349 16.8496C24.7507 16.7471 24.4666 16.6439 24.1827 16.5403C23.8222 16.4087 23.4614 16.2781 23.1004 16.148C22.752 16.0224 22.4038 15.8962 22.0557 15.77C21.9909 15.7465 21.9262 15.7231 21.8595 15.699C21.5543 15.5884 21.2498 15.4764 20.9459 15.3623C20.7175 15.2766 20.488 15.1935 20.2577 15.1131C20.151 15.0736 20.0444 15.0341 19.9344 14.9934C19.8399 14.9597 19.7454 14.926 19.648 14.8913C19.4331 14.7461 19.4331 14.7461 19.3472 14.4495C19.3354 14.1602 19.3354 14.1602 19.427 13.9709C19.7959 13.7809 20.2396 13.9179 20.6263 14.0246C20.8588 14.0992 21.0894 14.1782 21.3198 14.259C21.4926 14.3174 21.6654 14.3759 21.8382 14.4342C22.1076 14.5261 22.3768 14.6186 22.6457 14.7121C22.9072 14.8027 23.1693 14.8911 23.4316 14.9792C23.5116 15.0076 23.5916 15.0361 23.674 15.0654C24.0517 15.1909 24.26 15.2457 24.658 15.1649C24.9137 15.0633 24.9137 15.0633 24.9995 14.8438C25.0421 14.46 25.0376 14.3087 24.8023 13.9942C24.7384 13.9201 24.6746 13.8459 24.6089 13.7695C25.0236 13.6384 25.4388 13.5086 25.854 13.3789C25.9718 13.3416 26.0896 13.3044 26.211 13.266C26.3243 13.2307 26.4376 13.1955 26.5544 13.1592C26.6587 13.1264 26.763 13.0937 26.8705 13.06C27.1479 12.9883 27.1479 12.9883 27.5385 12.9883Z" fill="#FF5033"/>
<path d="M24.3164 23.3398C24.9561 23.4264 25.4793 23.6711 26.062 23.938C26.1646 23.9831 26.2672 24.0281 26.3729 24.0746C27.0164 24.3677 27.5268 24.6944 28.0273 25.1953C27.8905 25.5026 27.7277 25.7178 27.4952 25.9598C27.395 26.065 27.395 26.065 27.2928 26.1723C27.223 26.2446 27.1532 26.317 27.0813 26.3916C26.9445 26.5344 26.8078 26.6773 26.6712 26.8204C26.6041 26.8906 26.5369 26.9607 26.4678 27.033C26.2167 27.3029 25.9796 27.5832 25.7451 27.8674C25.5743 28.0391 25.4164 28.1272 25.1953 28.2227C25.1309 28.0938 25.0664 27.9648 25 27.832C24.9416 27.8325 24.8831 27.8331 24.8229 27.8336C21.7932 27.8566 21.7932 27.8566 21.1914 27.5391C21.2316 27.4867 21.2718 27.4342 21.3131 27.3803C22.057 26.4091 22.7976 25.4358 23.5229 24.4507C23.5804 24.3727 23.6378 24.2948 23.6969 24.2144C23.9089 23.9258 24.1177 23.6379 24.3164 23.3398Z" fill="#FF5033"/>
<path d="M38.6719 28.125C38.9798 28.2983 39.1122 28.4372 39.2944 28.7354C39.4165 29.2723 39.3643 29.6034 39.0892 30.0732C38.8609 30.4076 38.6232 30.7321 38.3789 31.0547C38.3008 31.16 38.2227 31.2653 38.1447 31.3706C37.5427 32.1743 36.8971 32.9408 36.2305 33.6915C36.1649 33.7655 36.0993 33.8395 36.0317 33.9158C35.6701 34.3013 35.285 34.6253 34.7656 34.7657C34.3155 34.7199 34.0816 34.6031 33.7952 34.2652C33.7287 34.1725 33.6622 34.0799 33.5938 33.9844C33.731 33.6607 33.8868 33.4927 34.1614 33.2764C34.6534 32.8604 35.032 32.3817 35.1562 31.7383C35.139 31.6147 35.1218 31.4911 35.104 31.3637C35.0407 30.8871 34.9983 30.4425 35.1562 29.9805C35.6117 29.387 36.2852 29.0005 36.9141 28.6133C36.9848 28.5658 37.0556 28.5183 37.1286 28.4694C37.654 28.1202 38.0387 28.0074 38.6719 28.125Z" fill="#FF5033"/>
<path d="M8.6905 40.8201C8.71467 40.939 8.73884 41.0578 8.76374 41.1802C9.11878 42.7434 9.62639 43.8282 11.022 44.7081C11.4575 45.1564 11.5344 45.859 11.5653 46.4659C11.5453 46.8955 11.4384 47.1468 11.1319 47.4608C10.7086 47.6912 10.3661 47.7669 9.88679 47.711C9.26278 47.411 8.97967 46.8335 8.70271 46.2278C8.6534 46.1216 8.6534 46.1216 8.6031 46.0131C7.20197 42.9152 7.20197 42.9152 7.42097 41.4061C7.80405 40.8919 8.07113 40.8067 8.6905 40.8201Z" fill="#FF5033"/>
<path d="M14.6483 27.5391C14.7527 27.5759 14.7527 27.5759 14.8593 27.6135C16.2299 28.0936 17.5762 28.5312 19.0103 28.7705C19.3224 28.8227 19.6336 28.8794 19.945 28.9358C20.2625 28.9924 20.5804 29.0468 20.8983 29.1016C20.8338 29.6172 20.7694 30.1328 20.703 30.6641C20.0393 30.5706 19.3757 30.4769 18.7122 30.3827C18.4868 30.3508 18.2613 30.319 18.0359 30.2873C17.7105 30.2415 17.3852 30.1953 17.0599 30.1491C16.9603 30.1351 16.8607 30.1212 16.758 30.1068C16.1476 30.0197 15.5444 29.9131 14.9412 29.7852C14.8919 29.5024 14.8432 29.2196 14.7948 28.9368C14.7738 28.8171 14.7738 28.8171 14.7524 28.6951C14.7392 28.6174 14.726 28.5396 14.7124 28.4595C14.6939 28.3529 14.6939 28.3529 14.6752 28.2441C14.6458 28.0072 14.6439 27.7776 14.6483 27.5391Z" fill="#FF5033"/>
</svg>
