<svg width="21" height="13" viewBox="0 0 21 13" fill="none" xmlns="http://www.w3.org/2000/svg">
<path d="M2.75 0C2.52956 0 2.30908 0.084362 2.14117 0.252279C1.80533 0.588112 1.80533 1.13411 2.14117 1.46994L4.39822 3.727C1.83569 5.60742 0.166667 8.63308 0.166667 12.0556H20.8333C20.8333 8.63308 19.1643 5.60742 16.6018 3.727L18.8588 1.46994C19.1947 1.13239 19.1947 0.589834 18.8588 0.252279C18.523 -0.0835547 17.977 -0.0835547 17.6412 0.252279L15.0881 2.80534C13.7044 2.11757 12.1502 1.72222 10.5 1.72222C8.84978 1.72222 7.29561 2.11757 5.91189 2.80534L3.35883 0.252279C3.19092 0.084362 2.97044 0 2.75 0ZM5.33333 6.88889H7.05556V8.61111H5.33333V6.88889ZM13.9444 6.88889H15.6667V8.61111H13.9444V6.88889Z" fill="white"/>
</svg>
