<svg width="18" height="13" viewBox="0 0 18 13" fill="none" xmlns="http://www.w3.org/2000/svg">
<path d="M17.8183 4.41368C17.8584 3.25486 17.605 2.10472 17.0816 1.07003C16.7265 0.645479 16.2337 0.358971 15.6891 0.260435C13.4364 0.0560312 11.1744 -0.0277471 8.91274 0.00945879C6.65933 -0.0294358 4.40546 0.0516391 2.16067 0.252339C1.71687 0.333069 1.30616 0.541238 0.978657 0.851443C0.250017 1.52341 0.169057 2.67304 0.0880974 3.64456C-0.0293658 5.39133 -0.0293658 7.14401 0.0880974 8.89077C0.111519 9.43758 0.192936 9.98036 0.330977 10.51C0.428595 10.9189 0.626095 11.2972 0.905793 11.611C1.23552 11.9377 1.65579 12.1577 2.1121 12.2425C3.85753 12.458 5.61622 12.5473 7.3745 12.5097C10.2081 12.5502 12.6936 12.5097 15.6324 12.283C16.0999 12.2034 16.532 11.9831 16.8711 11.6515C17.0978 11.4248 17.2671 11.1472 17.365 10.8419C17.6545 9.95347 17.7967 9.02363 17.786 8.08927C17.8183 7.63589 17.8183 4.89944 17.8183 4.41368ZM7.08304 8.57503V3.5636L11.8759 6.08146C10.5319 6.82629 8.75891 7.66827 7.08304 8.57503Z" fill="#FF5033"/>
</svg>
